<svg width="713" height="512" viewBox="0 0 713 512" fill="none" xmlns="http://www.w3.org/2000/svg">
<path d="M630.214 7H81.7857C40.5598 7 7 40.4541 7 81.55V429.45C7 470.546 40.5598 504 81.7857 504H630.214C671.44 504 705 470.546 705 429.45V81.55C705 40.4541 671.44 7 630.214 7ZM370.989 238.101C362.17 244.717 349.862 244.686 341.044 238.101L98.4268 56.7H613.639L371.022 238.101H370.989ZM215.499 206.355L56.889 429.448V87.7589L215.499 206.355ZM255.415 236.206L311.193 277.892C324.405 287.77 340.235 292.709 356.065 292.709C371.894 292.709 387.724 287.77 400.936 277.892L454.595 237.79L608.562 454.323H100.298L255.382 236.2L255.415 236.206ZM494.482 207.939L655.206 87.7923V429.482C655.206 430.724 654.676 431.78 654.489 433.023L494.508 207.973L494.482 207.939Z" fill="white"/>
</svg>
