<svg width="32" height="32" viewBox="0 0 32 32" fill="none" xmlns="http://www.w3.org/2000/svg">
<g clip-path="url(#clip0_2816_77)">
<circle cx="16" cy="16" r="16" fill="black"/>
<path d="M23.2827 4.824C23.0121 4.824 22.7787 4.73067 22.5827 4.544C22.3961 4.35733 22.3027 4.13333 22.3027 3.872C22.3027 3.60133 22.3961 3.37733 22.5827 3.2C22.7787 3.01333 23.0121 2.92 23.2827 2.92C23.5627 2.92 23.7961 3.01333 23.9827 3.2C24.1694 3.37733 24.2627 3.60133 24.2627 3.872C24.2627 4.13333 24.1694 4.35733 23.9827 4.544C23.7961 4.73067 23.5627 4.824 23.2827 4.824ZM19.6567 16.08V15.072H22.4287C22.6621 15.072 22.7787 14.9507 22.7787 14.708V7.414C22.7787 7.18067 22.6621 7.064 22.4287 7.064H20.7487V6.056H22.7087C23.5394 6.056 23.9547 6.47133 23.9547 7.302V14.834C23.9547 15.6647 23.5394 16.08 22.7087 16.08H19.6567Z" fill="white"/>
<path d="M6.66731 16V3.04H8.17931V10.852L11.9053 7.072H13.8313L9.85331 11.05V11.158L14.3173 16H12.4453L8.17931 11.356V16H6.66731Z" fill="white"/>
<path d="M10.0693 30.0314C9.12131 30.0314 8.28131 29.7674 7.54931 29.2394C6.82931 28.7114 6.26531 27.9614 5.85731 26.9894C5.46131 26.0174 5.26331 24.8594 5.26331 23.5154C5.26331 22.1714 5.46131 21.0134 5.85731 20.0414C6.26531 19.0694 6.82931 18.3194 7.54931 17.7914C8.28131 17.2634 9.12131 16.9994 10.0693 16.9994C11.0293 16.9994 11.8693 17.2634 12.5893 17.7914C13.3093 18.3194 13.8673 19.0694 14.2633 20.0414C14.6713 21.0134 14.8753 22.1714 14.8753 23.5154C14.8753 24.8594 14.6713 26.0174 14.2633 26.9894C13.8673 27.9614 13.3093 28.7114 12.5893 29.2394C11.8693 29.7674 11.0293 30.0314 10.0693 30.0314ZM6.81131 23.5154C6.81131 24.3314 6.89531 25.0694 7.06331 25.7294C7.24331 26.3774 7.48931 26.9234 7.80131 27.3674L11.2933 18.7094C10.9213 18.5054 10.5133 18.4034 10.0693 18.4034C9.43331 18.4034 8.86931 18.6134 8.37731 19.0334C7.88531 19.4414 7.50131 20.0294 7.22531 20.7974C6.94931 21.5534 6.81131 22.4594 6.81131 23.5154ZM10.0693 28.6454C10.7053 28.6454 11.2693 28.4414 11.7613 28.0334C12.2533 27.6134 12.6373 27.0194 12.9133 26.2514C13.1893 25.4834 13.3273 24.5714 13.3273 23.5154C13.3273 22.6994 13.2373 21.9674 13.0573 21.3194C12.8893 20.6594 12.6493 20.1074 12.3373 19.6634L8.82731 28.3394C9.21131 28.5434 9.62531 28.6454 10.0693 28.6454Z" fill="white"/>
<path d="M22.0035 30.216C21.0555 30.216 20.2155 29.952 19.4835 29.424C18.7635 28.896 18.1995 28.146 17.7915 27.174C17.3955 26.202 17.1975 25.044 17.1975 23.7C17.1975 22.356 17.3955 21.198 17.7915 20.226C18.1995 19.254 18.7635 18.504 19.4835 17.976C20.2155 17.448 21.0555 17.184 22.0035 17.184C22.9635 17.184 23.8035 17.448 24.5235 17.976C25.2435 18.504 25.8015 19.254 26.1975 20.226C26.6055 21.198 26.8095 22.356 26.8095 23.7C26.8095 25.044 26.6055 26.202 26.1975 27.174C25.8015 28.146 25.2435 28.896 24.5235 29.424C23.8035 29.952 22.9635 30.216 22.0035 30.216ZM18.7455 23.7C18.7455 24.516 18.8295 25.254 18.9975 25.914C19.1775 26.562 19.4235 27.108 19.7355 27.552L23.2275 18.894C22.8555 18.69 22.4475 18.588 22.0035 18.588C21.3675 18.588 20.8035 18.798 20.3115 19.218C19.8195 19.626 19.4355 20.214 19.1595 20.982C18.8835 21.738 18.7455 22.644 18.7455 23.7ZM22.0035 28.83C22.6395 28.83 23.2035 28.626 23.6955 28.218C24.1875 27.798 24.5715 27.204 24.8475 26.436C25.1235 25.668 25.2615 24.756 25.2615 23.7C25.2615 22.884 25.1715 22.152 24.9915 21.504C24.8235 20.844 24.5835 20.292 24.2715 19.848L20.7615 28.524C21.1455 28.728 21.5595 28.83 22.0035 28.83Z" fill="white"/>
</g>
<defs>
<clipPath id="clip0_2816_77">
<rect width="32" height="32" fill="white"/>
</clipPath>
</defs>
</svg>
